<svg xmlns="http://www.w3.org/2000/svg" xmlns:xlink="http://www.w3.org/1999/xlink" version="1.1" x="0px" y="0px" viewBox="0 0 100 125" enable-background="new 0 0 100 100" xml:space="preserve"><path d="M14.2,65.5h3.5v0.1v6.1v7.2c0,4.2,3.4,7.6,7.6,7.6l10.5-1.6v10.5v0.1c0,1.3,1.2,2.2,2.6,2l37.7-6.7c1.4-0.3,2.6-1.6,2.6-3.1  V86v-1.3V65.5c7.2-6.6,11.8-16.1,11.8-26.7c-0.1-20-16.3-36.3-36.3-36.3c-5.5,0-10.8,1.2-15.5,3.5c-12.4,5.8-21,18.3-21,32.8v4.8  v1.2L10.3,59C8.4,62.6,10.2,65.5,14.2,65.5z M54.2,11.9c14.7,0,26.6,12,26.6,26.6c0,14.7-12,26.6-26.6,26.6  c-14.7,0-26.6-12-26.6-26.6C27.5,23.9,39.5,11.9,54.2,11.9z M37.4,48l2.6-0.9c1.1,1.8,2.6,3.5,4.3,4.8l-1.2,2.5  c-0.4,0.9,0,1.9,0.8,2.3l2.7,1.3c0.9,0.4,1.9,0,2.3-0.8l1.2-2.5c2.1,0.5,4.3,0.6,6.4,0.3l0.9,2.6c0.3,0.9,1.3,1.4,2.3,1.1l2.8-1  c0.9-0.3,1.4-1.3,1.1-2.3l-0.9-2.6c1.8-1.1,3.5-2.6,4.8-4.3l2.5,1.2c0.9,0.4,1.9,0,2.3-0.8l1.3-2.7c0.4-0.9,0-1.9-0.8-2.3l-2.5-1.2  c0.5-2.1,0.6-4.3,0.3-6.4l2.6-0.9c0.9-0.3,1.4-1.3,1.1-2.3l-1-2.8c-0.3-0.9-1.3-1.4-2.3-1.1L68.4,30c-1.1-1.8-2.6-3.5-4.3-4.8  l1.2-2.5c0.4-0.9,0-1.9-0.8-2.3l-2.7-1.3c-0.9-0.4-1.9,0-2.3,0.8l-1.2,2.5c-2.1-0.5-4.3-0.6-6.4-0.3l-0.9-2.6  c-0.3-0.9-1.3-1.4-2.3-1.1l-2.8,1c-0.9,0.3-1.4,1.3-1.1,2.3l0.9,2.6c-1.8,1.1-3.5,2.6-4.8,4.3l-2.5-1.2c-0.9-0.4-1.9,0-2.3,0.8  l-1.3,2.7c-0.4,0.9,0,1.9,0.8,2.3l2.5,1.2c-0.5,2.1-0.6,4.3-0.3,6.4l-2.6,0.9c-0.9,0.3-1.4,1.3-1.1,2.3l1,2.8  C35.5,47.9,36.5,48.4,37.4,48z M47.1,35.2c1.9-3.9,6.6-5.6,10.5-3.8c3.9,1.9,5.6,6.6,3.8,10.5c-1.9,3.9-6.6,5.6-10.5,3.8  C46.9,43.8,45.2,39.1,47.1,35.2z"/></svg>